<svg width="720" height="679" fill="none" xmlns="http://www.w3.org/2000/svg"><path d="M309.914 54.264l77.579 176.42 156.173-131.35-81.797 179.023 207.84 6.528-193.257 76.757 137.757 140.581-191.511-70.473-13.022 192.284-77.579-176.42-156.173 131.349 81.797-179.023-207.84-6.528 193.257-76.756-137.756-140.581 191.51 70.472 13.022-192.283z" fill="#8850CF"/><path d="M221.903 381.583l-9.736 1.546-4.563-28.731 9.932-1.577c2.853-.453 5.394-.267 7.625.558 2.239.814 4.08 2.204 5.524 4.171 1.444 1.966 2.403 4.441 2.876 7.424.476 2.993.328 5.654-.443 7.981-.762 2.327-2.095 4.231-3.998 5.712-1.893 1.48-4.299 2.452-7.217 2.916zm-5.247-3.784l4.279-.679c2.002-.318 3.613-.948 4.835-1.89 1.22-.951 2.051-2.21 2.492-3.776.44-1.575.486-3.462.137-5.66-.349-2.197-.976-3.968-1.879-5.31-.905-1.352-2.074-2.284-3.507-2.794-1.426-.522-3.111-.628-5.056-.319l-4.433.704 3.132 19.724zm24.137.784l-4.564-28.731 18.687-2.968.693 4.363-13.482 2.141 1.239 7.8 12.513-1.988.693 4.363-12.513 1.988 1.245 7.842 13.594-2.159.693 4.363-18.798 2.986zm36.301-27.124c-.326-1.205-1.029-2.071-2.11-2.599-1.072-.53-2.379-.672-3.922-.427-1.085.172-1.99.484-2.714.934-.724.451-1.248.989-1.57 1.616a3.284 3.284 0 00-.326 2.022c.095.599.313 1.096.654 1.493.35.395.789.709 1.315.942a8.1 8.1 0 001.705.505c.613.114 1.225.194 1.836.241l2.801.245a18.79 18.79 0 013.291.528c1.078.269 2.067.669 2.966 1.197a7.303 7.303 0 012.284 2.068c.615.851 1.021 1.899 1.219 3.143.267 1.683.072 3.234-.585 4.652-.658 1.409-1.744 2.602-3.257 3.581-1.505.968-3.408 1.634-5.709 2-2.235.355-4.23.317-5.986-.114-1.747-.432-3.189-1.238-4.325-2.419-1.128-1.183-1.881-2.722-2.258-4.618l5.12-.813c.234.988.675 1.772 1.323 2.35.647.577 1.432.961 2.354 1.15.931.188 1.939.196 3.024.023 1.132-.179 2.096-.505 2.894-.977.805-.483 1.403-1.067 1.793-1.752.388-.694.522-1.454.4-2.278-.128-.747-.446-1.329-.953-1.747-.509-.428-1.178-.744-2.006-.948-.82-.214-1.766-.371-2.836-.47l-3.403-.322c-2.462-.232-4.479-.856-6.05-1.873-1.563-1.027-2.508-2.569-2.835-4.626-.269-1.693-.046-3.248.669-4.666.724-1.419 1.825-2.605 3.303-3.559 1.477-.964 3.221-1.605 5.232-1.924 2.039-.324 3.882-.252 5.528.215 1.655.456 3.021 1.241 4.1 2.355 1.076 1.104 1.757 2.463 2.042 4.076l-5.008.796zm34.918-3.705l-5.246.833c-.287-.837-.684-1.555-1.191-2.155a6.206 6.206 0 00-1.773-1.473 6.325 6.325 0 00-2.215-.727 8.074 8.074 0 00-2.513.025c-1.562.248-2.884.861-3.966 1.838-1.083.968-1.846 2.259-2.29 3.873-.445 1.605-.496 3.488-.153 5.648.349 2.198.985 3.995 1.907 5.393.93 1.386 2.054 2.368 3.373 2.945 1.327.565 2.766.725 4.319.479a8.48 8.48 0 002.359-.72 6.693 6.693 0 001.872-1.348 6.104 6.104 0 001.266-1.898 6.32 6.32 0 00.513-2.383l5.251-.805a11.417 11.417 0 01-.666 4.047 11.475 11.475 0 01-2.035 3.574c-.904 1.073-2.016 1.979-3.337 2.716-1.323.728-2.84 1.227-4.551 1.499-2.526.401-4.872.175-7.041-.679-2.168-.854-3.998-2.295-5.49-4.321-1.491-2.025-2.482-4.582-2.972-7.668-.492-3.096-.337-5.834.464-8.214.8-2.39 2.098-4.327 3.895-5.811 1.797-1.484 3.949-2.425 6.456-2.823 1.599-.254 3.122-.266 4.568-.035a11.55 11.55 0 013.989 1.394 10.657 10.657 0 013.155 2.749c.899 1.133 1.583 2.482 2.052 4.047zm2.657-5.888l-.693-4.363 22.923-3.64.693 4.363-8.88 1.41 3.87 24.368-5.162.82-3.87-24.368-8.881 1.41zm53.33 1.785c.492 3.096.333 5.839-.476 8.23-.801 2.381-2.105 4.314-3.911 5.799-1.797 1.484-3.954 2.426-6.47 2.826-2.515.399-4.862.173-7.04-.68-2.17-.863-4.009-2.302-5.518-4.316-1.501-2.024-2.496-4.579-2.987-7.666-.491-3.095-.336-5.834.465-8.214.809-2.391 2.112-4.329 3.909-5.813 1.807-1.486 3.968-2.428 6.483-2.828 2.516-.399 4.858-.172 7.027.682 2.178.853 4.017 2.291 5.518 4.316 1.509 2.014 2.509 4.568 3 7.664zm-5.232.831c-.346-2.179-.98-3.963-1.9-5.351-.913-1.398-2.028-2.386-3.347-2.963-1.321-.586-2.762-.755-4.324-.507-1.561.248-2.879.855-3.953 1.822-1.075.957-1.835 2.242-2.278 3.856-.436 1.604-.481 3.495-.135 5.674.346 2.179.976 3.968 1.888 5.367.921 1.388 2.041 2.375 3.361 2.961 1.319.577 2.76.741 4.321.493 1.562-.248 2.881-.85 3.956-1.807 1.074-.967 1.829-2.252 2.265-3.855.443-1.614.492-3.511.146-5.69zm12.435 12.753l-4.564-28.731 10.774-1.711c2.208-.351 4.125-.233 5.752.352 1.636.584 2.952 1.535 3.948 2.853 1.004 1.308 1.65 2.874 1.94 4.698.292 1.842.164 3.54-.385 5.095-.549 1.554-1.515 2.863-2.9 3.926-1.386 1.055-3.187 1.758-5.403 2.11l-7.141 1.134-.68-4.279 6.44-1.022c1.29-.205 2.311-.598 3.063-1.177.752-.58 1.262-1.294 1.53-2.142.277-.849.335-1.784.173-2.803-.162-1.02-.506-1.886-1.031-2.598-.516-.714-1.225-1.22-2.125-1.518-.893-.309-1.989-.36-3.289-.153l-4.77.757 3.872 24.382-5.204.827zm34.566-22.361l.664 4.181-12.935 2.054-.664-4.181 12.935-2.054zm8.179 15.572l-4.563-28.731 18.406-2.923.692 4.362-13.201 2.097 1.239 7.8 11.939-1.896.693 4.363-11.939 1.896 1.939 12.205-5.205.827zm23.789-33.234l4.563 28.731-5.205.826-4.563-28.731 5.205-.826zm10.199 27.835l-4.563-28.73 10.774-1.712c2.207-.35 4.12-.261 5.738.268 1.628.528 2.935 1.423 3.921 2.686.995 1.251 1.638 2.793 1.929 4.627.293 1.842.154 3.504-.416 4.985-.563 1.47-1.543 2.694-2.94 3.674-1.4.97-3.203 1.63-5.41 1.981l-7.674 1.219-.686-4.321 6.972-1.108c1.291-.205 2.319-.55 3.086-1.036.765-.496 1.289-1.121 1.572-1.875.291-.765.355-1.658.193-2.677-.162-1.02-.501-1.857-1.017-2.514-.518-.665-1.219-1.12-2.101-1.363-.884-.253-1.976-.276-3.276-.07l-4.77.758 3.873 24.382-5.205.826zm12.775-15.376l9.18 11.889-5.808.923-9.054-11.909 5.682-.903zm25.224-12.017c-.326-1.204-1.029-2.071-2.11-2.599-1.072-.53-2.379-.672-3.922-.427-1.085.173-1.99.484-2.714.935-.724.45-1.248.989-1.57 1.615a3.285 3.285 0 00-.326 2.022c.095.599.313 1.097.654 1.493.35.395.789.709 1.315.942a8.16 8.16 0 001.705.506c.613.113 1.225.193 1.836.24l2.801.246a18.79 18.79 0 013.291.527 11.19 11.19 0 012.966 1.197 7.326 7.326 0 012.284 2.068c.615.852 1.021 1.899 1.219 3.143.267 1.684.072 3.235-.585 4.652-.658 1.409-1.744 2.603-3.257 3.581-1.505.968-3.408 1.635-5.709 2-2.235.355-4.23.317-5.986-.113-1.747-.433-3.189-1.239-4.325-2.42-1.128-1.183-1.881-2.722-2.258-4.618l5.12-.813c.234.989.675 1.772 1.323 2.35.647.578 1.432.961 2.354 1.151.931.187 1.939.195 3.024.023 1.132-.18 2.096-.506 2.894-.978.805-.482 1.403-1.066 1.793-1.752.388-.694.522-1.454.4-2.278-.128-.747-.446-1.329-.953-1.747-.509-.427-1.178-.743-2.006-.947-.82-.215-1.766-.372-2.836-.47l-3.403-.323c-2.462-.232-4.479-.856-6.05-1.872-1.563-1.027-2.508-2.57-2.835-4.627-.269-1.693-.046-3.248.669-4.666.724-1.419 1.825-2.605 3.303-3.559 1.477-.963 3.221-1.605 5.232-1.924 2.039-.324 3.882-.252 5.528.215 1.655.456 3.021 1.241 4.1 2.355 1.076 1.104 1.757 2.463 2.042 4.077l-5.008.795zm8.217-4.929l-.693-4.363 22.923-3.641.693 4.363-8.88 1.41 3.87 24.368-5.163.82-3.87-24.368-8.88 1.411z" fill="#F2F2F2"/></svg>