<svg width="739" height="700" fill="none" xmlns="http://www.w3.org/2000/svg"><path d="M428.904 64.865l6.677 193.677 194.814-64.44-143.13 136.69 191.663 83.581-209.094-.368 76.237 182.643-152.573-137.211-83.848 174.714-6.677-193.676-194.814 64.44 143.13-136.69-191.662-83.582 209.093.368-76.237-182.642 152.573 137.21 83.848-174.714z" fill="#F2F2F2"/><path d="M240.035 308.324l6.288 1.432 3.739 22.471.333.076 13.102-18.635 6.288 1.432-6.461 28.365-4.931-1.124 4.439-19.486-.263-.06-12.259 17.618-3.684-.839-3.41-21.231-.263-.06-4.448 19.528-4.931-1.123 6.461-28.364zm57.46 28.006c-.697 3.056-1.865 5.543-3.506 7.462-1.63 1.911-3.56 3.219-5.79 3.926-2.22.708-4.572.779-7.056.213-2.484-.565-4.577-1.649-6.281-3.251-1.693-1.61-2.864-3.63-3.515-6.06-.639-2.438-.612-5.18.082-8.227.696-3.056 1.859-5.54 3.489-7.451 1.642-1.918 3.572-3.232 5.793-3.94 2.229-.706 4.586-.776 7.07-.211 2.483.566 4.573 1.649 6.267 3.249 1.704 1.602 2.875 3.622 3.515 6.06.65 2.43.628 5.174-.068 8.23zm-5.166-1.177c.49-2.151.566-4.042.228-5.673-.326-1.638-.994-2.97-2.003-3.996-1.007-1.036-2.282-1.729-3.824-2.081-1.542-.351-2.991-.278-4.347.219-1.355.488-2.538 1.399-3.551 2.732-1.001 1.326-1.747 3.064-2.237 5.216-.49 2.151-.572 4.046-.245 5.684.337 1.63 1.009 2.964 2.017 3.999 1.009 1.026 2.285 1.715 3.827 2.066 1.542.352 2.99.283 4.344-.205 1.357-.497 2.535-1.408 3.537-2.734 1.012-1.333 1.764-3.075 2.254-5.227zm6.793 16.466l6.461-28.365 10.858 2.474c2.05.467 3.68 1.178 4.89 2.133 1.221.949 2.043 2.054 2.464 3.315.431 1.264.487 2.597.167 4.001-.263 1.154-.709 2.091-1.34 2.812a5.736 5.736 0 01-2.237 1.574 7.764 7.764 0 01-2.756.523l-.064.277c.994.284 1.889.814 2.684 1.587.806.766 1.389 1.725 1.749 2.875.359 1.15.375 2.446.047 3.886-.335 1.468-.991 2.707-1.969 3.718-.976 1.002-2.256 1.676-3.841 2.024-1.584.348-3.462.275-5.632-.219l-11.481-2.615zm6.116-3.123l5.526 1.258c1.865.425 3.29.376 4.274-.148.995-.531 1.62-1.36 1.877-2.486.191-.84.156-1.645-.106-2.413-.26-.778-.729-1.448-1.407-2.011-.676-.571-1.545-.978-2.606-1.22l-5.665-1.29-1.893 8.31zm2.735-12.008l5.083 1.158c.887.202 1.722.222 2.507.061.786-.171 1.451-.51 1.994-1.017.554-.515.926-1.188 1.116-2.019.25-1.099.068-2.092-.546-2.98-.604-.885-1.663-1.5-3.178-1.845l-5.193-1.183-1.783 7.825zm28.381-6.225l-6.461 28.365-5.138-1.171 6.46-28.364 5.139 1.17zm-.897 29.632l6.461-28.364 5.138 1.17-5.48 24.057 12.493 2.846-.981 4.307-17.631-4.016zm22.09 5.032l6.461-28.364 18.448 4.202-.981 4.307-13.31-3.032-1.754 7.701 12.354 2.814-.981 4.307-12.354-2.814-1.763 7.742 13.42 3.057-.981 4.307-18.559-4.227zm40.063-7.963l-.94 4.127-12.769-2.909.94-4.127 12.769 2.909zm1.795 17.497l6.461-28.364 18.171 4.139-.981 4.307-13.033-2.968-1.754 7.7 11.786 2.685-.981 4.307-11.786-2.685-2.745 12.05-5.138-1.171zm34.451-21.988l-6.461 28.364-5.138-1.17 6.461-28.365 5.138 1.171zm-.897 29.631l6.461-28.364 10.637 2.423c2.179.496 3.921 1.291 5.226 2.385 1.314 1.096 2.194 2.413 2.64 3.952.457 1.532.479 3.203.067 5.012-.414 1.819-1.162 3.31-2.242 4.472-1.069 1.155-2.435 1.927-4.097 2.315-1.66.38-3.579.322-5.758-.175l-7.576-1.725.972-4.266 6.883 1.568c1.274.29 2.358.352 3.25.186.895-.175 1.614-.56 2.157-1.155.555-.602.947-1.406 1.176-2.412.229-1.007.226-1.911-.009-2.712-.233-.811-.713-1.493-1.442-2.047-.726-.564-1.731-.992-3.014-1.284l-4.709-1.073-5.483 24.071-5.139-1.171zm17.581-9.514l4.094 14.452-5.733-1.306-3.97-14.424 5.609 1.278zm27.885-1.763c.146-1.239-.184-2.305-.991-3.198-.797-.891-1.958-1.509-3.481-1.856-1.071-.244-2.027-.292-2.867-.144-.84.149-1.526.454-2.058.916a3.274 3.274 0 00-1.056 1.755c-.134.591-.117 1.134.052 1.629.178.497.468.951.869 1.363.404.403.869.771 1.395 1.105.526.333 1.064.635 1.614.906l2.508 1.271a18.748 18.748 0 012.858 1.715c.901.651 1.67 1.39 2.307 2.215a7.313 7.313 0 011.351 2.77c.253 1.019.24 2.142-.04 3.371-.378 1.661-1.136 3.028-2.274 4.1-1.135 1.062-2.587 1.765-4.356 2.111-1.757.337-3.771.248-6.043-.27-2.206-.502-4.045-1.28-5.514-2.334-1.46-1.051-2.498-2.336-3.113-3.856-.607-1.517-.732-3.226-.377-5.126l5.055 1.151c-.151 1.005-.033 1.896.353 2.674.386.777.972 1.425 1.757 1.944.794.521 1.727.903 2.798 1.147 1.117.255 2.134.312 3.05.171.927-.149 1.699-.468 2.316-.959.619-.5 1.025-1.155 1.22-1.965.159-.741.08-1.4-.235-1.977-.313-.586-.816-1.128-1.509-1.626-.681-.504-1.5-1.002-2.457-1.492l-3.038-1.566c-2.199-1.132-3.839-2.462-4.918-3.99-1.069-1.535-1.372-3.318-.909-5.35.381-1.671 1.167-3.031 2.357-4.081 1.201-1.047 2.664-1.739 4.392-2.074 1.729-.344 3.587-.29 5.572.162 2.012.459 3.696 1.211 5.051 2.258 1.365 1.04 2.341 2.277 2.927 3.712.588 1.426.714 2.94.378 4.544l-4.944-1.126zm9.461-1.516l.982-4.308 22.63 5.155-.981 4.307-8.767-1.997-5.48 24.058-5.096-1.161 5.479-24.058-8.767-1.996z" fill="#8850CF"/></svg>