<svg width="739" height="700" viewBox="0 0 739 700" fill="none" xmlns="http://www.w3.org/2000/svg">
<path d="M428.904 64.865L435.581 258.542L630.395 194.102L487.265 330.792L678.928 414.373L469.834 414.005L546.071 596.648L393.498 459.437L309.65 634.151L302.973 440.475L108.159 504.915L251.289 368.225L59.6265 284.643L268.72 285.011L192.483 102.369L345.056 239.579L428.904 64.865Z" fill="#F2F2F2"/>
<path d="M240.035 308.324L246.323 309.756L250.062 332.227L250.395 332.303L263.497 313.668L269.785 315.1L263.324 343.465L258.393 342.341L262.832 322.855L262.569 322.795L250.31 340.413L246.626 339.574L243.216 318.343L242.953 318.283L238.505 337.811L233.574 336.688L240.035 308.324ZM297.495 336.33C296.798 339.386 295.63 341.873 293.989 343.792C292.359 345.703 290.429 347.011 288.199 347.718C285.979 348.426 283.627 348.497 281.143 347.931C278.659 347.366 276.566 346.282 274.862 344.68C273.169 343.07 271.998 341.05 271.347 338.62C270.708 336.182 270.735 333.44 271.429 330.393C272.125 327.337 273.288 324.853 274.918 322.942C276.56 321.024 278.49 319.71 280.711 319.002C282.94 318.296 285.297 318.226 287.781 318.791C290.264 319.357 292.354 320.44 294.048 322.04C295.752 323.642 296.923 325.662 297.563 328.1C298.213 330.53 298.191 333.274 297.495 336.33ZM292.329 335.153C292.819 333.002 292.895 331.111 292.557 329.48C292.231 327.842 291.563 326.51 290.554 325.484C289.547 324.448 288.272 323.755 286.73 323.403C285.188 323.052 283.739 323.125 282.383 323.622C281.028 324.11 279.845 325.021 278.832 326.354C277.831 327.68 277.085 329.418 276.595 331.57C276.105 333.721 276.023 335.616 276.35 337.254C276.687 338.884 277.359 340.218 278.367 341.253C279.376 342.279 280.652 342.968 282.194 343.319C283.736 343.671 285.184 343.602 286.538 343.114C287.895 342.617 289.073 341.706 290.075 340.38C291.087 339.047 291.839 337.305 292.329 335.153ZM299.122 351.619L305.583 323.254L316.441 325.728C318.491 326.195 320.121 326.906 321.331 327.861C322.552 328.81 323.374 329.915 323.795 331.176C324.226 332.44 324.282 333.773 323.962 335.177C323.699 336.331 323.253 337.268 322.622 337.989C321.994 338.701 321.248 339.225 320.385 339.563C319.521 339.9 318.602 340.075 317.629 340.086L317.565 340.363C318.559 340.647 319.454 341.177 320.249 341.95C321.055 342.716 321.638 343.675 321.998 344.825C322.357 345.975 322.373 347.271 322.045 348.711C321.71 350.179 321.054 351.418 320.076 352.429C319.1 353.431 317.82 354.105 316.235 354.453C314.651 354.801 312.773 354.728 310.603 354.234L299.122 351.619ZM305.238 348.496L310.764 349.754C312.629 350.179 314.054 350.13 315.038 349.606C316.033 349.075 316.658 348.246 316.915 347.12C317.106 346.28 317.071 345.475 316.809 344.707C316.549 343.929 316.08 343.259 315.402 342.696C314.726 342.125 313.857 341.718 312.796 341.476L307.131 340.186L305.238 348.496ZM307.973 336.488L313.056 337.646C313.943 337.848 314.778 337.868 315.563 337.707C316.349 337.536 317.014 337.197 317.557 336.69C318.111 336.175 318.483 335.502 318.673 334.671C318.923 333.572 318.741 332.579 318.127 331.691C317.523 330.806 316.464 330.191 314.949 329.846L309.756 328.663L307.973 336.488ZM336.354 330.263L329.893 358.628L324.755 357.457L331.215 329.093L336.354 330.263ZM335.457 359.895L341.918 331.531L347.056 332.701L341.576 356.758L354.069 359.604L353.088 363.911L335.457 359.895ZM357.547 364.927L364.008 336.563L382.456 340.765L381.475 345.072L368.165 342.04L366.411 349.741L378.765 352.555L377.784 356.862L365.43 354.048L363.667 361.79L377.087 364.847L376.106 369.154L357.547 364.927ZM397.61 356.964L396.67 361.091L383.901 358.182L384.841 354.055L397.61 356.964ZM399.405 374.461L405.866 346.097L424.037 350.236L423.056 354.543L410.023 351.575L408.269 359.275L420.055 361.96L419.074 366.267L407.288 363.582L404.543 375.632L399.405 374.461ZM433.856 352.473L427.395 380.837L422.257 379.667L428.718 351.302L433.856 352.473ZM432.959 382.104L439.42 353.74L450.057 356.163C452.236 356.659 453.978 357.454 455.283 358.548C456.597 359.644 457.477 360.961 457.923 362.5C458.38 364.032 458.402 365.703 457.99 367.512C457.576 369.331 456.828 370.822 455.748 371.984C454.679 373.139 453.313 373.911 451.651 374.299C449.991 374.679 448.072 374.621 445.893 374.124L438.317 372.399L439.289 368.133L446.172 369.701C447.446 369.991 448.53 370.053 449.422 369.887C450.317 369.712 451.036 369.327 451.579 368.732C452.134 368.13 452.526 367.326 452.755 366.32C452.984 365.313 452.981 364.409 452.746 363.608C452.513 362.797 452.033 362.115 451.304 361.561C450.578 360.997 449.573 360.569 448.29 360.277L443.581 359.204L438.098 383.275L432.959 382.104ZM450.54 372.59L454.634 387.042L448.901 385.736L444.931 371.312L450.54 372.59ZM478.425 370.827C478.571 369.588 478.241 368.522 477.434 367.629C476.637 366.738 475.476 366.12 473.953 365.773C472.882 365.529 471.926 365.481 471.086 365.629C470.246 365.778 469.56 366.083 469.028 366.545C468.495 367.006 468.143 367.591 467.972 368.3C467.838 368.891 467.855 369.434 468.024 369.929C468.202 370.426 468.492 370.88 468.893 371.292C469.297 371.695 469.762 372.063 470.288 372.397C470.814 372.73 471.352 373.032 471.902 373.303L474.41 374.574C475.424 375.067 476.377 375.639 477.268 376.289C478.169 376.94 478.938 377.679 479.575 378.504C480.222 379.331 480.672 380.254 480.926 381.274C481.179 382.293 481.166 383.416 480.886 384.645C480.508 386.306 479.75 387.673 478.612 388.745C477.477 389.807 476.025 390.51 474.256 390.856C472.499 391.193 470.485 391.104 468.213 390.586C466.007 390.084 464.168 389.306 462.699 388.252C461.239 387.201 460.201 385.916 459.586 384.396C458.979 382.879 458.854 381.17 459.209 379.27L464.264 380.421C464.113 381.426 464.231 382.317 464.617 383.095C465.003 383.872 465.589 384.52 466.374 385.039C467.168 385.56 468.101 385.942 469.172 386.186C470.289 386.441 471.306 386.498 472.222 386.357C473.149 386.208 473.921 385.889 474.538 385.398C475.157 384.898 475.563 384.243 475.758 383.433C475.917 382.692 475.838 382.033 475.523 381.456C475.21 380.87 474.707 380.328 474.014 379.83C473.333 379.326 472.514 378.828 471.557 378.338L468.519 376.772C466.32 375.64 464.68 374.31 463.601 372.782C462.532 371.247 462.229 369.464 462.692 367.432C463.073 365.761 463.859 364.401 465.049 363.351C466.25 362.304 467.713 361.612 469.441 361.277C471.17 360.933 473.028 360.987 475.013 361.439C477.025 361.898 478.709 362.65 480.064 363.697C481.429 364.737 482.405 365.974 482.991 367.409C483.579 368.835 483.705 370.349 483.369 371.953L478.425 370.827ZM487.886 369.311L488.868 365.003L511.498 370.158L510.517 374.465L501.75 372.468L496.27 396.526L491.174 395.365L496.653 371.307L487.886 369.311Z" fill="#8850CF"/>
</svg>
