<svg width="720" height="679" viewBox="0 0 720 679" fill="none" xmlns="http://www.w3.org/2000/svg">
<path d="M309.914 54.2636L387.493 230.684L543.666 99.3344L461.869 278.357L669.709 284.885L476.452 361.642L614.209 502.223L422.698 431.75L409.676 624.034L332.097 447.614L175.924 578.963L257.721 399.94L49.8812 393.412L243.138 316.656L105.382 176.075L296.892 246.547L309.914 54.2636Z" fill="#8850CF"/>
<path d="M221.903 381.583L212.167 383.129L207.604 354.398L217.536 352.821C220.389 352.368 222.93 352.554 225.161 353.379C227.4 354.193 229.241 355.583 230.685 357.55C232.129 359.516 233.088 361.991 233.561 364.974C234.037 367.967 233.889 370.628 233.118 372.955C232.356 375.282 231.023 377.186 229.12 378.667C227.227 380.147 224.821 381.119 221.903 381.583ZM216.656 377.799L220.935 377.12C222.937 376.802 224.548 376.172 225.77 375.23C226.99 374.279 227.821 373.02 228.262 371.454C228.702 369.879 228.748 367.992 228.399 365.794C228.05 363.597 227.423 361.826 226.52 360.484C225.615 359.132 224.446 358.2 223.013 357.69C221.587 357.168 219.902 357.062 217.957 357.371L213.524 358.075L216.656 377.799ZM240.793 378.583L236.229 349.852L254.916 346.884L255.609 351.247L242.127 353.388L243.366 361.188L255.879 359.2L256.572 363.563L244.059 365.551L245.304 373.393L258.898 371.234L259.591 375.597L240.793 378.583ZM277.094 351.459C276.768 350.254 276.065 349.388 274.984 348.86C273.912 348.33 272.605 348.188 271.062 348.433C269.977 348.605 269.072 348.917 268.348 349.367C267.624 349.818 267.1 350.356 266.778 350.983C266.456 351.609 266.347 352.284 266.452 353.005C266.547 353.604 266.765 354.101 267.106 354.498C267.456 354.893 267.895 355.207 268.421 355.44C268.945 355.663 269.514 355.832 270.126 355.945C270.739 356.059 271.351 356.139 271.962 356.186L274.763 356.431C275.888 356.512 276.985 356.687 278.054 356.959C279.132 357.228 280.121 357.628 281.02 358.156C281.928 358.683 282.69 359.372 283.304 360.224C283.919 361.075 284.325 362.123 284.523 363.367C284.79 365.05 284.595 366.601 283.938 368.019C283.28 369.428 282.194 370.621 280.681 371.6C279.176 372.568 277.273 373.234 274.972 373.6C272.737 373.955 270.742 373.917 268.986 373.486C267.239 373.054 265.797 372.248 264.661 371.067C263.533 369.884 262.78 368.345 262.403 366.449L267.523 365.636C267.757 366.624 268.198 367.408 268.846 367.986C269.493 368.563 270.278 368.947 271.2 369.136C272.131 369.324 273.139 369.332 274.224 369.159C275.356 368.98 276.32 368.654 277.118 368.182C277.923 367.699 278.521 367.115 278.911 366.43C279.299 365.736 279.433 364.976 279.311 364.152C279.183 363.405 278.865 362.823 278.358 362.405C277.849 361.977 277.18 361.661 276.352 361.457C275.532 361.243 274.586 361.086 273.516 360.987L270.113 360.665C267.651 360.433 265.634 359.809 264.063 358.792C262.5 357.765 261.555 356.223 261.228 354.166C260.959 352.473 261.182 350.918 261.897 349.5C262.621 348.081 263.722 346.895 265.2 345.941C266.677 344.977 268.421 344.336 270.432 344.017C272.471 343.693 274.314 343.765 275.96 344.232C277.615 344.688 278.981 345.473 280.06 346.587C281.136 347.691 281.817 349.05 282.102 350.663L277.094 351.459ZM312.012 347.754L306.766 348.587C306.479 347.75 306.082 347.032 305.575 346.432C305.066 345.822 304.475 345.331 303.802 344.959C303.129 344.586 302.391 344.344 301.587 344.232C300.79 344.109 299.953 344.117 299.074 344.257C297.512 344.505 296.19 345.118 295.108 346.095C294.025 347.063 293.262 348.354 292.818 349.968C292.373 351.573 292.322 353.456 292.665 355.616C293.014 357.814 293.65 359.611 294.572 361.009C295.502 362.395 296.626 363.377 297.945 363.954C299.272 364.519 300.711 364.679 302.264 364.433C303.124 364.296 303.911 364.056 304.623 363.713C305.344 363.359 305.967 362.909 306.495 362.365C307.031 361.82 307.453 361.187 307.761 360.467C308.078 359.746 308.249 358.951 308.274 358.084L313.525 357.279C313.546 358.676 313.324 360.025 312.859 361.326C312.404 362.625 311.726 363.817 310.824 364.9C309.92 365.973 308.808 366.879 307.487 367.616C306.164 368.344 304.647 368.843 302.936 369.115C300.41 369.516 298.064 369.29 295.895 368.436C293.727 367.582 291.897 366.141 290.405 364.115C288.914 362.09 287.923 359.533 287.433 356.447C286.941 353.351 287.096 350.613 287.897 348.233C288.697 345.843 289.995 343.906 291.792 342.422C293.589 340.938 295.741 339.997 298.248 339.599C299.847 339.345 301.37 339.333 302.816 339.564C304.262 339.794 305.592 340.259 306.805 340.958C308.018 341.648 309.069 342.564 309.96 343.707C310.859 344.84 311.543 346.189 312.012 347.754ZM314.669 341.866L313.976 337.503L336.899 333.863L337.592 338.226L328.712 339.636L332.582 364.004L327.42 364.824L323.55 340.456L314.669 341.866ZM367.999 343.651C368.491 346.747 368.332 349.49 367.523 351.881C366.722 354.262 365.418 356.195 363.612 357.68C361.815 359.164 359.658 360.106 357.142 360.506C354.627 360.905 352.28 360.679 350.102 359.826C347.932 358.963 346.093 357.524 344.584 355.51C343.083 353.486 342.088 350.931 341.597 347.844C341.106 344.749 341.261 342.01 342.062 339.63C342.871 337.239 344.174 335.301 345.971 333.817C347.778 332.331 349.939 331.389 352.454 330.989C354.97 330.59 357.312 330.817 359.481 331.671C361.659 332.524 363.498 333.962 364.999 335.987C366.508 338.001 367.508 340.555 367.999 343.651ZM362.767 344.482C362.421 342.303 361.787 340.519 360.867 339.131C359.954 337.733 358.839 336.745 357.52 336.168C356.199 335.582 354.758 335.413 353.196 335.661C351.635 335.909 350.317 336.516 349.243 337.483C348.168 338.44 347.408 339.725 346.965 341.339C346.529 342.943 346.484 344.834 346.83 347.013C347.176 349.192 347.806 350.981 348.718 352.38C349.639 353.768 350.759 354.755 352.079 355.341C353.398 355.918 354.839 356.082 356.4 355.834C357.962 355.586 359.281 354.984 360.356 354.027C361.43 353.06 362.185 351.775 362.621 350.172C363.064 348.558 363.113 346.661 362.767 344.482ZM375.202 357.235L370.638 328.504L381.412 326.793C383.62 326.442 385.537 326.56 387.164 327.145C388.8 327.729 390.116 328.68 391.112 329.998C392.116 331.306 392.762 332.872 393.052 334.696C393.344 336.538 393.216 338.236 392.667 339.791C392.118 341.345 391.152 342.654 389.767 343.717C388.381 344.772 386.58 345.475 384.364 345.827L377.223 346.961L376.543 342.682L382.983 341.66C384.273 341.455 385.294 341.062 386.046 340.483C386.798 339.903 387.308 339.189 387.576 338.341C387.853 337.492 387.911 336.557 387.749 335.538C387.587 334.518 387.243 333.652 386.718 332.94C386.202 332.226 385.493 331.72 384.593 331.422C383.7 331.113 382.604 331.062 381.304 331.269L376.534 332.026L380.406 356.408L375.202 357.235ZM409.768 334.874L410.432 339.055L397.497 341.109L396.833 336.928L409.768 334.874ZM417.947 350.446L413.384 321.715L431.79 318.792L432.482 323.154L419.281 325.251L420.52 333.051L432.459 331.155L433.152 335.518L421.213 337.414L423.152 349.619L417.947 350.446ZM441.736 317.212L446.299 345.943L441.094 346.769L436.531 318.038L441.736 317.212ZM451.935 345.047L447.372 316.317L458.146 314.605C460.353 314.255 462.266 314.344 463.884 314.873C465.512 315.401 466.819 316.296 467.805 317.559C468.8 318.81 469.443 320.352 469.734 322.186C470.027 324.028 469.888 325.69 469.318 327.171C468.755 328.641 467.775 329.865 466.378 330.845C464.978 331.815 463.175 332.475 460.968 332.826L453.294 334.045L452.608 329.724L459.58 328.616C460.871 328.411 461.899 328.066 462.666 327.58C463.431 327.084 463.955 326.459 464.238 325.705C464.529 324.94 464.593 324.047 464.431 323.028C464.269 322.008 463.93 321.171 463.414 320.514C462.896 319.849 462.195 319.394 461.313 319.151C460.429 318.898 459.337 318.875 458.037 319.081L453.267 319.839L457.14 344.221L451.935 345.047ZM464.71 329.671L473.89 341.56L468.082 342.483L459.028 330.574L464.71 329.671ZM489.934 317.654C489.608 316.45 488.905 315.583 487.824 315.055C486.752 314.525 485.445 314.383 483.902 314.628C482.817 314.801 481.912 315.112 481.188 315.563C480.464 316.013 479.94 316.552 479.618 317.178C479.296 317.805 479.187 318.479 479.292 319.2C479.387 319.799 479.605 320.297 479.946 320.693C480.296 321.088 480.735 321.402 481.261 321.635C481.785 321.858 482.354 322.027 482.966 322.141C483.579 322.254 484.191 322.334 484.802 322.381L487.603 322.627C488.728 322.707 489.825 322.883 490.894 323.154C491.972 323.424 492.961 323.823 493.86 324.351C494.768 324.878 495.529 325.568 496.144 326.419C496.759 327.271 497.165 328.318 497.363 329.562C497.63 331.246 497.435 332.797 496.778 334.214C496.12 335.623 495.034 336.817 493.521 337.795C492.016 338.763 490.113 339.43 487.812 339.795C485.577 340.15 483.582 340.112 481.826 339.682C480.079 339.249 478.637 338.443 477.501 337.262C476.373 336.079 475.62 334.54 475.243 332.644L480.363 331.831C480.597 332.82 481.038 333.603 481.686 334.181C482.333 334.759 483.118 335.142 484.04 335.332C484.971 335.519 485.979 335.527 487.064 335.355C488.196 335.175 489.16 334.849 489.958 334.377C490.763 333.895 491.361 333.311 491.751 332.625C492.139 331.931 492.273 331.171 492.151 330.347C492.023 329.6 491.705 329.018 491.198 328.6C490.689 328.173 490.02 327.857 489.192 327.653C488.372 327.438 487.426 327.281 486.356 327.183L482.953 326.86C480.491 326.628 478.474 326.004 476.903 324.988C475.34 323.961 474.395 322.418 474.068 320.361C473.799 318.668 474.022 317.113 474.737 315.695C475.461 314.276 476.562 313.09 478.04 312.136C479.517 311.173 481.261 310.531 483.272 310.212C485.311 309.888 487.154 309.96 488.8 310.427C490.455 310.883 491.821 311.668 492.9 312.782C493.976 313.886 494.657 315.245 494.942 316.859L489.934 317.654ZM498.151 312.725L497.458 308.362L520.381 304.721L521.074 309.084L512.194 310.494L516.064 334.862L510.901 335.682L507.031 311.314L498.151 312.725Z" fill="#F2F2F2"/>
</svg>
